<mxfile host="app.diagrams.net" agent="Mozilla/5.0 (Windows NT 10.0; Win64; x64; rv:134.0) Gecko/20100101 Firefox/134.0" version="26.0.4">
  <diagram id="Ht1M8jgEwFfnCIfOTk4-" name="Page-1">
    <mxGraphModel dx="1434" dy="824" grid="1" gridSize="10" guides="1" tooltips="1" connect="1" arrows="1" fold="1" page="1" pageScale="1" pageWidth="1169" pageHeight="827" math="0" shadow="0">
      <root>
        <mxCell id="0" />
        <mxCell id="1" parent="0" />
        <mxCell id="S2NnFLnJoWz1vfSgh-SL-4" value="VPC" style="points=[[0,0],[0.25,0],[0.5,0],[0.75,0],[1,0],[1,0.25],[1,0.5],[1,0.75],[1,1],[0.75,1],[0.5,1],[0.25,1],[0,1],[0,0.75],[0,0.5],[0,0.25]];outlineConnect=0;gradientColor=none;html=1;whiteSpace=wrap;fontSize=12;fontStyle=0;container=1;pointerEvents=0;collapsible=0;recursiveResize=0;shape=mxgraph.aws4.group;grIcon=mxgraph.aws4.group_vpc2;strokeColor=#8C4FFF;fillColor=none;verticalAlign=top;align=left;spacingLeft=30;fontColor=#AAB7B8;dashed=0;" parent="1" vertex="1">
          <mxGeometry x="120" y="67" width="1030" height="760" as="geometry" />
        </mxCell>
        <mxCell id="S2NnFLnJoWz1vfSgh-SL-5" value="Region USA" style="points=[[0,0],[0.25,0],[0.5,0],[0.75,0],[1,0],[1,0.25],[1,0.5],[1,0.75],[1,1],[0.75,1],[0.5,1],[0.25,1],[0,1],[0,0.75],[0,0.5],[0,0.25]];outlineConnect=0;gradientColor=none;html=1;whiteSpace=wrap;fontSize=12;fontStyle=0;container=1;pointerEvents=0;collapsible=0;recursiveResize=0;shape=mxgraph.aws4.group;grIcon=mxgraph.aws4.group_region;strokeColor=#00A4A6;fillColor=none;verticalAlign=top;align=left;spacingLeft=30;fontColor=#147EBA;dashed=1;" parent="S2NnFLnJoWz1vfSgh-SL-4" vertex="1">
          <mxGeometry x="155" y="23" width="620" height="340" as="geometry" />
        </mxCell>
        <mxCell id="hwHYz0z9tD9XKouha8d3-1" value="Availability Zone" style="fillColor=none;strokeColor=#147EBA;dashed=1;verticalAlign=top;fontStyle=0;fontColor=#147EBA;whiteSpace=wrap;html=1;" vertex="1" parent="S2NnFLnJoWz1vfSgh-SL-5">
          <mxGeometry x="20" y="33" width="150" height="157" as="geometry" />
        </mxCell>
        <mxCell id="hwHYz0z9tD9XKouha8d3-2" value="Availability Zone" style="fillColor=none;strokeColor=#147EBA;dashed=1;verticalAlign=top;fontStyle=0;fontColor=#147EBA;whiteSpace=wrap;html=1;" vertex="1" parent="S2NnFLnJoWz1vfSgh-SL-5">
          <mxGeometry x="20" y="200" width="150" height="130" as="geometry" />
        </mxCell>
        <mxCell id="hwHYz0z9tD9XKouha8d3-3" value="Auto Scaling group" style="points=[[0,0],[0.25,0],[0.5,0],[0.75,0],[1,0],[1,0.25],[1,0.5],[1,0.75],[1,1],[0.75,1],[0.5,1],[0.25,1],[0,1],[0,0.75],[0,0.5],[0,0.25]];outlineConnect=0;gradientColor=none;html=1;whiteSpace=wrap;fontSize=12;fontStyle=0;container=1;pointerEvents=0;collapsible=0;recursiveResize=0;shape=mxgraph.aws4.groupCenter;grIcon=mxgraph.aws4.group_auto_scaling_group;grStroke=1;strokeColor=#D86613;fillColor=none;verticalAlign=top;align=center;fontColor=#D86613;dashed=1;spacingTop=25;" vertex="1" parent="S2NnFLnJoWz1vfSgh-SL-5">
          <mxGeometry x="30" y="60" width="130" height="250" as="geometry" />
        </mxCell>
        <mxCell id="hwHYz0z9tD9XKouha8d3-5" value="" style="sketch=0;points=[[0,0,0],[0.25,0,0],[0.5,0,0],[0.75,0,0],[1,0,0],[0,1,0],[0.25,1,0],[0.5,1,0],[0.75,1,0],[1,1,0],[0,0.25,0],[0,0.5,0],[0,0.75,0],[1,0.25,0],[1,0.5,0],[1,0.75,0]];outlineConnect=0;fontColor=#232F3E;fillColor=#ED7100;strokeColor=#ffffff;dashed=0;verticalLabelPosition=bottom;verticalAlign=top;align=center;html=1;fontSize=12;fontStyle=0;aspect=fixed;shape=mxgraph.aws4.resourceIcon;resIcon=mxgraph.aws4.ec2;" vertex="1" parent="hwHYz0z9tD9XKouha8d3-3">
          <mxGeometry x="35" y="60" width="53" height="53" as="geometry" />
        </mxCell>
        <mxCell id="hwHYz0z9tD9XKouha8d3-6" value="" style="sketch=0;points=[[0,0,0],[0.25,0,0],[0.5,0,0],[0.75,0,0],[1,0,0],[0,1,0],[0.25,1,0],[0.5,1,0],[0.75,1,0],[1,1,0],[0,0.25,0],[0,0.5,0],[0,0.75,0],[1,0.25,0],[1,0.5,0],[1,0.75,0]];outlineConnect=0;fontColor=#232F3E;fillColor=#ED7100;strokeColor=#ffffff;dashed=0;verticalLabelPosition=bottom;verticalAlign=top;align=center;html=1;fontSize=12;fontStyle=0;aspect=fixed;shape=mxgraph.aws4.resourceIcon;resIcon=mxgraph.aws4.ec2;" vertex="1" parent="hwHYz0z9tD9XKouha8d3-3">
          <mxGeometry x="38.5" y="180" width="53" height="53" as="geometry" />
        </mxCell>
        <mxCell id="hwHYz0z9tD9XKouha8d3-24" style="edgeStyle=none;curved=1;rounded=0;orthogonalLoop=1;jettySize=auto;html=1;fontSize=12;startSize=8;endSize=8;" edge="1" parent="S2NnFLnJoWz1vfSgh-SL-5" source="hwHYz0z9tD9XKouha8d3-16" target="S2NnFLnJoWz1vfSgh-SL-38">
          <mxGeometry relative="1" as="geometry" />
        </mxCell>
        <mxCell id="hwHYz0z9tD9XKouha8d3-16" value="&lt;div&gt;API Gateway&lt;/div&gt;" style="sketch=0;points=[[0,0,0],[0.25,0,0],[0.5,0,0],[0.75,0,0],[1,0,0],[0,1,0],[0.25,1,0],[0.5,1,0],[0.75,1,0],[1,1,0],[0,0.25,0],[0,0.5,0],[0,0.75,0],[1,0.25,0],[1,0.5,0],[1,0.75,0]];outlineConnect=0;fontColor=#232F3E;fillColor=#E7157B;strokeColor=#ffffff;dashed=0;verticalLabelPosition=bottom;verticalAlign=top;align=center;html=1;fontSize=12;fontStyle=0;aspect=fixed;shape=mxgraph.aws4.resourceIcon;resIcon=mxgraph.aws4.api_gateway;" vertex="1" parent="S2NnFLnJoWz1vfSgh-SL-5">
          <mxGeometry x="245" y="226" width="78" height="78" as="geometry" />
        </mxCell>
        <mxCell id="S2NnFLnJoWz1vfSgh-SL-38" value="Lambda" style="sketch=0;points=[[0,0,0],[0.25,0,0],[0.5,0,0],[0.75,0,0],[1,0,0],[0,1,0],[0.25,1,0],[0.5,1,0],[0.75,1,0],[1,1,0],[0,0.25,0],[0,0.5,0],[0,0.75,0],[1,0.25,0],[1,0.5,0],[1,0.75,0]];outlineConnect=0;fontColor=#232F3E;fillColor=#ED7100;strokeColor=#ffffff;dashed=0;verticalLabelPosition=bottom;verticalAlign=top;align=center;html=1;fontSize=12;fontStyle=0;aspect=fixed;shape=mxgraph.aws4.resourceIcon;resIcon=mxgraph.aws4.lambda;" parent="S2NnFLnJoWz1vfSgh-SL-5" vertex="1">
          <mxGeometry x="405" y="226" width="78" height="78" as="geometry" />
        </mxCell>
        <mxCell id="hwHYz0z9tD9XKouha8d3-18" value="&lt;div&gt;Simple Storage&lt;/div&gt;&lt;div&gt;Service (S3)&lt;br&gt;&lt;/div&gt;" style="sketch=0;points=[[0,0,0],[0.25,0,0],[0.5,0,0],[0.75,0,0],[1,0,0],[0,1,0],[0.25,1,0],[0.5,1,0],[0.75,1,0],[1,1,0],[0,0.25,0],[0,0.5,0],[0,0.75,0],[1,0.25,0],[1,0.5,0],[1,0.75,0]];outlineConnect=0;fontColor=#232F3E;fillColor=#7AA116;strokeColor=#ffffff;dashed=0;verticalLabelPosition=top;verticalAlign=bottom;align=center;html=1;fontSize=12;fontStyle=0;aspect=fixed;shape=mxgraph.aws4.resourceIcon;resIcon=mxgraph.aws4.s3;labelPosition=center;" vertex="1" parent="S2NnFLnJoWz1vfSgh-SL-5">
          <mxGeometry x="405" y="72.5" width="78" height="78" as="geometry" />
        </mxCell>
        <mxCell id="hwHYz0z9tD9XKouha8d3-22" style="edgeStyle=none;curved=1;rounded=0;orthogonalLoop=1;jettySize=auto;html=1;entryX=0;entryY=0.5;entryDx=0;entryDy=0;entryPerimeter=0;fontSize=12;startSize=8;endSize=8;startArrow=classic;startFill=1;" edge="1" parent="S2NnFLnJoWz1vfSgh-SL-5" source="hwHYz0z9tD9XKouha8d3-6" target="hwHYz0z9tD9XKouha8d3-16">
          <mxGeometry relative="1" as="geometry" />
        </mxCell>
        <mxCell id="hwHYz0z9tD9XKouha8d3-23" style="edgeStyle=none;curved=1;rounded=0;orthogonalLoop=1;jettySize=auto;html=1;entryX=0;entryY=0.5;entryDx=0;entryDy=0;entryPerimeter=0;fontSize=12;startSize=8;endSize=8;startArrow=classic;startFill=1;" edge="1" parent="S2NnFLnJoWz1vfSgh-SL-5" source="hwHYz0z9tD9XKouha8d3-5" target="hwHYz0z9tD9XKouha8d3-16">
          <mxGeometry relative="1" as="geometry" />
        </mxCell>
        <mxCell id="hwHYz0z9tD9XKouha8d3-26" style="edgeStyle=none;curved=1;rounded=0;orthogonalLoop=1;jettySize=auto;html=1;entryX=0;entryY=0.5;entryDx=0;entryDy=0;entryPerimeter=0;fontSize=12;startSize=8;endSize=8;startArrow=classic;startFill=1;" edge="1" parent="S2NnFLnJoWz1vfSgh-SL-5" source="hwHYz0z9tD9XKouha8d3-5" target="hwHYz0z9tD9XKouha8d3-18">
          <mxGeometry relative="1" as="geometry" />
        </mxCell>
        <mxCell id="hwHYz0z9tD9XKouha8d3-27" style="edgeStyle=none;curved=1;rounded=0;orthogonalLoop=1;jettySize=auto;html=1;entryX=0;entryY=0.5;entryDx=0;entryDy=0;entryPerimeter=0;fontSize=12;startSize=8;endSize=8;startArrow=classic;startFill=1;" edge="1" parent="S2NnFLnJoWz1vfSgh-SL-5" source="hwHYz0z9tD9XKouha8d3-6" target="hwHYz0z9tD9XKouha8d3-18">
          <mxGeometry relative="1" as="geometry" />
        </mxCell>
        <mxCell id="hwHYz0z9tD9XKouha8d3-29" style="edgeStyle=none;curved=1;rounded=0;orthogonalLoop=1;jettySize=auto;html=1;entryX=0.5;entryY=1;entryDx=0;entryDy=0;entryPerimeter=0;fontSize=12;startSize=8;endSize=8;" edge="1" parent="S2NnFLnJoWz1vfSgh-SL-5" source="S2NnFLnJoWz1vfSgh-SL-38" target="hwHYz0z9tD9XKouha8d3-18">
          <mxGeometry relative="1" as="geometry" />
        </mxCell>
        <mxCell id="S2NnFLnJoWz1vfSgh-SL-7" value="Region FRANCE" style="points=[[0,0],[0.25,0],[0.5,0],[0.75,0],[1,0],[1,0.25],[1,0.5],[1,0.75],[1,1],[0.75,1],[0.5,1],[0.25,1],[0,1],[0,0.75],[0,0.5],[0,0.25]];outlineConnect=0;gradientColor=none;html=1;whiteSpace=wrap;fontSize=12;fontStyle=0;container=1;pointerEvents=0;collapsible=0;recursiveResize=0;shape=mxgraph.aws4.group;grIcon=mxgraph.aws4.group_region;strokeColor=#00A4A6;fillColor=none;verticalAlign=top;align=left;spacingLeft=30;fontColor=#147EBA;dashed=1;" parent="S2NnFLnJoWz1vfSgh-SL-4" vertex="1">
          <mxGeometry x="30" y="560" width="660" height="190" as="geometry" />
        </mxCell>
        <mxCell id="S2NnFLnJoWz1vfSgh-SL-20" value="" style="sketch=0;outlineConnect=0;fontColor=#232F3E;gradientColor=none;fillColor=#C925D1;strokeColor=none;dashed=0;verticalLabelPosition=bottom;verticalAlign=top;align=center;html=1;fontSize=12;fontStyle=0;aspect=fixed;pointerEvents=1;shape=mxgraph.aws4.aurora_instance;" parent="S2NnFLnJoWz1vfSgh-SL-4" vertex="1">
          <mxGeometry x="870" y="253" width="78" height="78" as="geometry" />
        </mxCell>
        <mxCell id="hwHYz0z9tD9XKouha8d3-20" style="edgeStyle=none;curved=1;rounded=0;orthogonalLoop=1;jettySize=auto;html=1;fontSize=12;startSize=8;endSize=8;" edge="1" parent="S2NnFLnJoWz1vfSgh-SL-4" source="hwHYz0z9tD9XKouha8d3-11" target="hwHYz0z9tD9XKouha8d3-5">
          <mxGeometry relative="1" as="geometry" />
        </mxCell>
        <mxCell id="hwHYz0z9tD9XKouha8d3-21" style="edgeStyle=none;curved=1;rounded=0;orthogonalLoop=1;jettySize=auto;html=1;fontSize=12;startSize=8;endSize=8;" edge="1" parent="S2NnFLnJoWz1vfSgh-SL-4" source="hwHYz0z9tD9XKouha8d3-11" target="hwHYz0z9tD9XKouha8d3-6">
          <mxGeometry relative="1" as="geometry" />
        </mxCell>
        <mxCell id="hwHYz0z9tD9XKouha8d3-11" value="&lt;div&gt;Application Load&lt;/div&gt;&lt;div&gt;Balancer&lt;/div&gt;" style="sketch=0;outlineConnect=0;fontColor=#232F3E;gradientColor=none;fillColor=#8C4FFF;strokeColor=none;dashed=0;verticalLabelPosition=bottom;verticalAlign=top;align=center;html=1;fontSize=12;fontStyle=0;aspect=fixed;pointerEvents=1;shape=mxgraph.aws4.application_load_balancer;" vertex="1" parent="S2NnFLnJoWz1vfSgh-SL-4">
          <mxGeometry x="40" y="253" width="78" height="78" as="geometry" />
        </mxCell>
        <mxCell id="hwHYz0z9tD9XKouha8d3-28" style="edgeStyle=none;curved=1;rounded=0;orthogonalLoop=1;jettySize=auto;html=1;fontSize=12;startSize=8;endSize=8;" edge="1" parent="S2NnFLnJoWz1vfSgh-SL-4" source="S2NnFLnJoWz1vfSgh-SL-38" target="S2NnFLnJoWz1vfSgh-SL-20">
          <mxGeometry relative="1" as="geometry" />
        </mxCell>
        <mxCell id="hwHYz0z9tD9XKouha8d3-19" style="edgeStyle=none;curved=1;rounded=0;orthogonalLoop=1;jettySize=auto;html=1;fontSize=12;startSize=8;endSize=8;" edge="1" parent="1" source="hwHYz0z9tD9XKouha8d3-9" target="hwHYz0z9tD9XKouha8d3-11">
          <mxGeometry relative="1" as="geometry" />
        </mxCell>
        <mxCell id="hwHYz0z9tD9XKouha8d3-9" value="&lt;div&gt;Internet Gateway&lt;/div&gt;" style="sketch=0;outlineConnect=0;fontColor=#232F3E;gradientColor=none;fillColor=#8C4FFF;strokeColor=none;dashed=0;verticalLabelPosition=bottom;verticalAlign=top;align=center;html=1;fontSize=12;fontStyle=0;aspect=fixed;pointerEvents=1;shape=mxgraph.aws4.internet_gateway;" vertex="1" parent="1">
          <mxGeometry x="20" y="320" width="78" height="78" as="geometry" />
        </mxCell>
      </root>
    </mxGraphModel>
  </diagram>
</mxfile>
